<?xml version="1.0" encoding="UTF-8" standalone="no"?>
<!DOCTYPE svg PUBLIC "-//W3C//DTD SVG 1.1//EN" "http://www.w3.org/Graphics/SVG/1.1/DTD/svg11.dtd">
<svg width="100%" height="100%" viewBox="0 0 1000 1000" version="1.1" xmlns="http://www.w3.org/2000/svg" xmlns:xlink="http://www.w3.org/1999/xlink" xml:space="preserve" xmlns:serif="http://www.serif.com/" style="fill-rule:evenodd;clip-rule:evenodd;stroke-linejoin:round;stroke-miterlimit:2;">
    <g transform="matrix(-1,0,0,1,2249.99501,-945.959961)">
        <path d="M1914.78,1150.24L1870.68,1226.63C1865.99,1234.76 1857.95,1239.41 1848.56,1239.41L1533.72,1239.42C1529,1239.42 1524.94,1241.76 1522.59,1245.84C1520.23,1249.92 1520.23,1254.6 1522.59,1258.68L1574.08,1347.87L1778.46,1347.84C1783.16,1347.84 1787.21,1350.18 1789.57,1354.26C1791.94,1358.33 1791.93,1363.02 1789.57,1367.09L1741.79,1449.84C1739.44,1453.92 1735.39,1456.26 1730.68,1456.26L1658.91,1456.28C1654.21,1456.28 1650.15,1458.62 1647.8,1462.7C1645.44,1466.79 1645.44,1471.46 1647.8,1475.54L1738.89,1633.3C1741.24,1637.38 1745.29,1639.71 1750,1639.71C1754.71,1639.71 1758.76,1637.38 1761.12,1633.3C1854.05,1472.28 1947.05,1311.3 2039.99,1150.28C2042.35,1146.21 2046.4,1143.86 2051.11,1143.86C2055.82,1143.86 2059.87,1146.21 2062.22,1150.28L2106.33,1226.66C2111.03,1234.79 2111.03,1244.09 2106.33,1252.22L1819.98,1748.17C1815.29,1756.3 1807.24,1760.95 1797.86,1760.95L1702.13,1760.94C1692.75,1760.94 1684.7,1756.29 1680,1748.17L1518.87,1469.04C1514.19,1460.93 1514.19,1451.63 1518.87,1443.52L1574.08,1347.87L1463.61,1347.84C1454.24,1347.84 1446.2,1343.18 1441.5,1335.07L1393.66,1252.2C1388.96,1244.07 1388.96,1234.79 1393.66,1226.66L1441.52,1143.74C1446.21,1135.61 1454.27,1130.97 1463.64,1130.97L1903.67,1130.98C1908.38,1130.98 1912.43,1133.32 1914.78,1137.4C1917.14,1141.48 1917.14,1146.16 1914.78,1150.24Z" style="fill:rgb(76,137,245);"/>
    </g>
</svg>
